HIERARCHY
ROOT root
{
	OFFSET 0.000000 0.000000 0.000000
	CHANNELS 6 Xposition Yposition Zposition Zrotation Yrotation Xrotation
	JOINT lhip
	{
		OFFSET 0.058581 -0.082280 -0.017664
		CHANNELS 3 Zrotation Yrotation Xrotation
		JOINT lknee
		{
			OFFSET 0.043451 -0.386469 0.008037
			CHANNELS 3 Zrotation Yrotation Xrotation
			JOINT lankle
			{
				OFFSET -0.014790 -0.426874 -0.037428
				CHANNELS 3 Zrotation Yrotation Xrotation
				JOINT ltoe
				{
					OFFSET 0.041054 -0.060286 0.122042
					CHANNELS 3 Zrotation Yrotation Xrotation
					End Site
					{
						OFFSET 0.000000 0.000000 0.000000
					}
				}
			}
		}
	}
	JOINT rhip
	{
		OFFSET -0.060310 -0.090513 -0.013543
		CHANNELS 3 Zrotation Yrotation Xrotation
		JOINT rknee
		{
			OFFSET -0.043257 -0.383688 -0.004843
			CHANNELS 3 Zrotation Yrotation Xrotation
			JOINT rankle
			{
				OFFSET 0.019056 -0.420046 -0.034562
				CHANNELS 3 Zrotation Yrotation Xrotation
				JOINT rtoe
				{
					OFFSET -0.034840 -0.062106 0.130323
					CHANNELS 3 Zrotation Yrotation Xrotation
					End Site
					{
						OFFSET 0.000000 0.000000 0.000000
					}
				}
			}
		}
	}
	JOINT lowerback
	{
		OFFSET 0.004439 0.124404 -0.038385
		CHANNELS 3 Zrotation Yrotation Xrotation
		JOINT upperback
		{
			OFFSET 0.004488 0.137956 0.026820
			CHANNELS 3 Zrotation Yrotation Xrotation
			JOINT chest
			{
				OFFSET -0.002265 0.056032 0.002855
				CHANNELS 3 Zrotation Yrotation Xrotation
				JOINT lowerneck
				{
					OFFSET -0.013390 0.211636 -0.033468
					CHANNELS 3 Zrotation Yrotation Xrotation
					JOINT upperneck
					{
						OFFSET 0.010113 0.088937 0.050410
						CHANNELS 3 Zrotation Yrotation Xrotation
						End Site
						{
							OFFSET 0.000000 0.000000 0.000000
						}
					}
				}
				JOINT lclavicle
				{
					OFFSET 0.071702 0.114000 -0.018898
					CHANNELS 3 Zrotation Yrotation Xrotation
					JOINT lshoulder
					{
						OFFSET 0.122921 0.045205 -0.019046
						CHANNELS 3 Zrotation Yrotation Xrotation
						JOINT lelbow
						{
							OFFSET 0.255332 -0.015649 -0.022946
							CHANNELS 3 Zrotation Yrotation Xrotation
							JOINT lwrist
							{
								OFFSET 0.265709 0.012698 -0.007375
								CHANNELS 3 Zrotation Yrotation Xrotation
								End Site
								{
									OFFSET 0.000000 0.000000 0.000000
								}
							}
						}
					}
				}
				JOINT rclavicle
				{
					OFFSET -0.082954 0.112472 -0.023707
					CHANNELS 3 Zrotation Yrotation Xrotation
					JOINT rshoulder
					{
						OFFSET -0.113228 0.046853 -0.008472
						CHANNELS 3 Zrotation Yrotation Xrotation
						JOINT relbow
						{
							OFFSET -0.260127 -0.014369 -0.031269
							CHANNELS 3 Zrotation Yrotation Xrotation
							JOINT rwrist
							{
								OFFSET -0.269108 0.006794 -0.006027
								CHANNELS 3 Zrotation Yrotation Xrotation
								End Site
								{
									OFFSET 0.000000 0.000000 0.000000
								}
							}
						}
					}
				}
			}
		}
	}
}
MOTION
Frames: 8
Frame Time: 0.033333
-1.755938 0.718546 0.986773 114.922958 0.008536 86.174251 -0.707851 3.019676 7.432791 -0.823579 -2.379525 0.835753 1.150211 10.492867 -13.737359 0.000000 -0.000000 0.000000 -4.351766 -8.143839 -1.248212 -2.446077 -12.852219 3.651104 3.744363 -11.913294 -3.732473 0.000000 -0.000000 0.000000 -1.945438 0.860253 -0.495476 0.313741 -3.768868 11.032797 -0.915798 -1.911020 -3.965671 2.539478 -2.185562 2.738927 5.903779 -4.920120 0.127566 -26.588426 -2.486528 5.497564 -54.708368 -6.705192 12.057658 8.032031 -24.303367 1.004152 -13.097401 -14.145350 1.071616 23.493208 5.432353 5.032769 62.685895 -0.328298 7.965464 -18.261102 22.967620 -12.555389 6.871905 12.798421 -14.380966 
-1.755853 0.718253 0.986791 114.920486 0.057095 86.254347 -0.645688 2.978338 7.320229 -0.815174 -2.373552 0.858435 1.298496 10.588105 -13.716136 0.000000 -0.000000 0.000000 -4.278906 -8.215347 -1.318795 -2.428653 -12.684306 3.653942 3.891240 -12.028182 -3.695394 0.000000 -0.000000 0.000000 -1.790803 0.766957 -0.490389 0.103902 -3.609677 10.291368 -0.844420 -1.820686 -3.251266 2.566819 -2.337885 2.483483 5.919998 -4.958944 0.449219 -26.300979 -2.630712 5.676918 -55.028102 -6.841327 11.872855 8.100434 -24.390721 1.357297 -12.980130 -14.202388 0.594393 23.404638 5.352794 5.079404 62.817668 -0.277729 8.013009 -18.384473 23.240780 -12.035102 7.256367 12.722358 -14.436193 
-1.756673 0.717872 0.987158 114.848130 0.058929 86.276294 -0.678511 2.983252 7.197605 -0.772967 -2.305241 0.965062 1.513626 10.710597 -13.776315 0.000000 -0.000000 0.000000 -4.273049 -8.100457 -1.439487 -2.440215 -12.601414 3.759828 3.877897 -12.132208 -3.661648 0.000000 -0.000000 0.000000 -1.736576 0.802122 -0.405317 0.117926 -3.463741 10.071703 -0.846660 -1.771361 -3.035247 2.637271 -2.337015 2.164842 5.878828 -5.136164 0.670458 -26.219809 -2.676700 5.665591 -55.157204 -6.965950 11.851277 8.176703 -24.499531 1.598863 -13.401288 -14.188147 0.580583 23.355657 5.263963 4.992345 62.749490 -0.252928 8.134970 -18.584531 23.779964 -11.499587 8.308465 12.233561 -14.403966 
-1.756889 0.717683 0.987453 114.917937 0.055842 86.283675 -0.679659 2.935082 7.176645 -0.776809 -2.276464 0.968777 1.494844 10.648217 -13.791043 0.000000 -0.000000 0.000000 -4.284587 -8.122485 -1.437926 -2.420289 -12.599440 3.765591 3.912589 -12.140357 -3.687818 0.000000 -0.000000 0.000000 -1.777380 0.863984 -0.532400 0.176563 -3.424924 10.044295 -0.787399 -1.840996 -2.845424 2.753010 -2.647122 2.112604 5.678904 -5.450711 0.752828 -26.175718 -2.699841 5.677216 -55.194114 -7.079715 11.775211 8.182906 -24.585691 1.720634 -13.374517 -14.340953 0.737150 23.310656 5.249739 5.014388 62.679244 -0.090827 8.077071 -18.607566 23.867938 -11.279109 8.401188 12.571757 -13.987044 
-1.756815 0.717582 0.987531 114.922811 0.050553 86.262399 -0.682404 2.963501 7.203479 -0.771812 -2.328804 0.948798 1.406987 10.608692 -13.758904 0.000000 -0.000000 0.000000 -4.278277 -8.109919 -1.396672 -2.416093 -12.591382 3.700540 3.878312 -12.202465 -3.701523 0.000000 -0.000000 0.000000 -1.740215 0.832360 -0.503696 0.162966 -3.444912 10.089603 -0.820938 -1.820728 -2.943122 2.739646 -2.617759 2.192248 5.700323 -5.349912 0.651357 -26.103632 -2.598109 5.502895 -55.210263 -7.017048 11.865492 8.133844 -24.576706 1.743390 -13.444310 -14.239124 0.767325 23.227566 5.215696 4.933122 62.765449 -0.178601 8.162634 -18.566095 23.887075 -11.206415 8.468703 12.559154 -14.028975 
-1.756874 0.717431 0.987613 114.972814 0.045442 86.267499 -0.667156 2.924957 7.198693 -0.784542 -2.317026 0.930221 1.470033 10.641728 -13.735648 0.000000 -0.000000 0.000000 -4.293007 -8.118349 -1.382619 -2.402625 -12.627634 3.719801 3.871377 -12.181652 -3.650093 0.000000 -0.000000 0.000000 -1.676258 0.737965 -0.392101 0.093579 -3.450833 9.871992 -0.826179 -1.801408 -2.824874 2.750057 -2.512436 1.931389 5.633710 -5.268551 0.578823 -25.990816 -2.485459 5.478422 -55.175774 -7.020908 11.778110 8.048566 -24.739472 1.991386 -13.629318 -14.540328 0.528604 23.212178 5.165168 4.959984 62.745005 -0.074209 8.215310 -18.461142 23.912213 -10.966593 8.508542 12.637869 -14.134950 
-1.757040 0.717282 0.987691 115.025641 0.034068 86.191199 -0.665023 2.934522 7.261024 -0.781207 -2.362535 0.926726 1.451285 10.621931 -13.734189 0.000000 -0.000000 0.000000 -4.305778 -8.127535 -1.313611 -2.417354 -12.632126 3.741251 3.862318 -12.176252 -3.663577 0.000000 -0.000000 0.000000 -1.728119 0.846173 -0.358001 0.158243 -3.419159 9.962609 -0.739678 -1.936008 -2.885319 2.688202 -2.391826 1.925677 5.617908 -5.249461 0.512327 -26.004451 -2.647269 5.609120 -55.163107 -7.011903 11.665034 8.134164 -24.754023 1.970513 -13.660448 -14.537617 0.650266 23.188944 5.238436 5.039276 62.674542 -0.068727 8.107513 -18.519206 23.987066 -10.943784 8.490016 12.687051 -13.998609 
-1.757121 0.717130 0.987773 115.012841 0.008405 86.179427 -0.691423 2.968041 7.273647 -0.778381 -2.396477 0.913122 1.479589 10.668512 -13.736737 0.000000 -0.000000 0.000000 -4.332201 -8.177019 -1.312795 -2.403673 -12.606219 3.711853 3.895895 -12.219793 -3.664772 0.000000 -0.000000 0.000000 -1.690309 0.798662 -0.163840 0.132540 -3.430491 9.688555 -0.732363 -1.874358 -2.889639 2.675787 -2.538811 1.964404 5.531736 -5.129113 0.657617 -26.005781 -2.565100 5.591874 -55.027948 -6.953824 11.737360 7.881774 -24.825403 2.207730 -13.417373 -14.387272 0.418553 23.096451 5.216583 5.097109 62.750537 -0.052160 8.165531 -18.552262 23.940485 -10.959364 8.311846 12.598862 -14.155977 
